<?xml version="1.0" encoding="UTF-8"?>
<!DOCTYPE svg PUBLIC "-//W3C//DTD SVG 1.1//EN" "http://www.w3.org/Graphics/SVG/1.1/DTD/svg11.dtd">
<svg version="1.1" xmlns="http://www.w3.org/2000/svg" xmlns:xlink="http://www.w3.org/1999/xlink" x="0" y="0" width="247.417" height="129.975" viewBox="0, 0, 247.417, 129.975">
  <g id="Master" transform="translate(-461.287, -92.953)">
    <path d="M570.113,92.973 C606.88,93.916 649.037,93.517 678.626,118.862 C690.655,129.548 698.486,143.721 703.062,162.02 C707.031,177.893 708.703,197.217 708.703,222.928 L673.703,222.928 C673.703,178.317 668.234,156.447 655.382,145.029 C641.008,133.079 621.139,130.947 603.206,129.301 C599.256,121.499 593.68,114.778 587.297,108.862 C580.594,102.979 572.917,98.161 564.616,94.869 L564.616,92.954 L570.113,92.973 z" fill="#D3D7DB"/>
    <path d="M461.287,222.706 L461.771,146.091 L496.974,146.314 L496.49,222.928 L461.287,222.706 z" fill="#838C94"/>
    <path d="M461.287,92.953 L461.287,127.953 C512.606,127.953 538.606,133.084 552.052,145.029 C564.905,156.446 570.374,178.317 570.374,222.928 L605.374,222.928 C605.374,197.217 603.701,177.893 599.732,162.02 C595.156,143.721 587.325,129.548 575.297,118.862 C553.378,99.391 520.753,92.953 461.287,92.953 z" fill="#838C94"/>
  </g>
</svg>
