<?xml version="1.0" encoding="UTF-8"?>
<!DOCTYPE svg PUBLIC "-//W3C//DTD SVG 1.1//EN" "http://www.w3.org/Graphics/SVG/1.1/DTD/svg11.dtd">
<svg version="1.1" xmlns="http://www.w3.org/2000/svg" xmlns:xlink="http://www.w3.org/1999/xlink" x="0" y="0" width="379.625" height="223.29" viewBox="0, 0, 379.625, 223.29">
  <g id="Layer_1" transform="translate(-214.287, -800.007)">
    <g>
      <path d="M592.356,800.007 C593.261,800.069 593.099,800.021 593.733,800.731 C594.394,801.89 593.01,803.494 593.01,803.494 L506.256,943.673 C506.256,943.673 505.564,945.037 504.227,945.07 C502.891,945.103 502.212,943.586 502.212,943.586 L487.013,919.443 C487.013,919.443 486.625,918.552 485.765,918.516 C484.906,918.479 484.436,919.44 484.436,919.44 L472.525,938.497 C472.525,938.497 472.316,938.893 472.292,939.41 C472.292,939.927 472.519,940.341 472.519,940.341 L488.808,966.264 C488.808,966.264 489.889,967.942 489.9,969.344 C489.912,970.746 488.829,972.45 488.829,972.45 L460.085,1019.068 C460.085,1019.068 459.951,1020.291 457.33,1021.823 C455.119,1023.115 452.508,1023.2 452.508,1023.2 L398.787,1023.2 C398.787,1023.2 394.332,1023.767 391.055,1022.156 C387.209,1020.264 386.39,1018.379 386.39,1018.379 L354.019,963.969 C354.019,963.969 353.328,962.57 353.331,961.214 C353.333,959.849 354.019,959.148 354.019,959.148 L387.079,909.559 C387.079,909.559 387.459,908.867 388.456,908.87 C389.624,908.874 389.834,909.559 389.834,909.559 L420.138,957.771 C420.138,957.771 420.721,959.128 421.548,959.128 C422.376,959.128 422.893,957.771 422.893,957.771 L518.627,802.805 C518.627,802.805 519.667,801.252 520.693,800.739 C521.72,800.226 524.137,800.05 524.137,800.05 L591.633,800.05 C591.936,800.015 591.696,800.041 592.356,800.007 z" fill="#EAE6DE"/>
      <path d="M350.695,801.507 C352.906,800.215 355.516,800.129 355.516,800.129 L409.238,800.129 C409.238,800.129 413.693,799.563 416.97,801.174 C420.816,803.066 421.635,804.951 421.635,804.951 L454.005,859.361 C454.005,859.361 454.697,860.76 454.694,862.116 C454.692,863.481 454.005,864.182 454.005,864.182 L420.946,913.771 C420.946,913.771 420.565,914.463 419.569,914.459 C418.401,914.456 418.191,913.771 418.191,913.771 L387.887,865.559 C387.887,865.559 387.34,864.702 386.513,864.702 C385.685,864.702 385.132,865.559 385.132,865.559 L289.398,1020.525 C289.398,1020.525 288.358,1022.077 287.331,1022.591 C286.305,1023.104 283.888,1023.28 283.888,1023.28 L216.392,1023.28 C216.392,1023.28 215.051,1023.484 214.487,1022.494 C213.826,1021.335 215.014,1019.836 215.014,1019.836 L347.94,804.262 C347.94,804.262 348.073,803.039 350.695,801.507 z" fill="#EAE6DE" id="Path"/>
    </g>
  </g>
</svg>
